<svg width="24" height="24" viewBox="0 0 24 24" fill="none" xmlns="http://www.w3.org/2000/svg">
<path d="M3 6.16667C3 5.85725 3.11379 5.5605 3.31632 5.34171C3.51886 5.12292 3.79357 5 4.08 5H19.92C20.2064 5 20.4811 5.12292 20.6837 5.34171C20.8862 5.5605 21 5.85725 21 6.16667C21 6.47609 20.8862 6.77283 20.6837 6.99162C20.4811 7.21042 20.2064 7.33333 19.92 7.33333H4.08C3.79357 7.33333 3.51886 7.21042 3.31632 6.99162C3.11379 6.77283 3 6.47609 3 6.16667ZM19.92 8.88889H8.4C8.11357 8.88889 7.83886 9.01181 7.63632 9.2306C7.43379 9.44939 7.32 9.74614 7.32 10.0556C7.32 10.365 7.43379 10.6617 7.63632 10.8805C7.83886 11.0993 8.11357 11.2222 8.4 11.2222H19.92C20.2064 11.2222 20.4811 11.0993 20.6837 10.8805C20.8862 10.6617 21 10.365 21 10.0556C21 9.74614 20.8862 9.44939 20.6837 9.2306C20.4811 9.01181 20.2064 8.88889 19.92 8.88889ZM19.92 12.7778H4.08C3.79357 12.7778 3.51886 12.9007 3.31632 13.1195C3.11379 13.3383 3 13.635 3 13.9444C3 14.2539 3.11379 14.5506 3.31632 14.7694C3.51886 14.9882 3.79357 15.1111 4.08 15.1111H19.92C20.2064 15.1111 20.4811 14.9882 20.6837 14.7694C20.8862 14.5506 21 14.2539 21 13.9444C21 13.635 20.8862 13.3383 20.6837 13.1195C20.4811 12.9007 20.2064 12.7778 19.92 12.7778ZM19.92 16.6667H8.4C8.11357 16.6667 7.83886 16.7896 7.63632 17.0084C7.43379 17.2272 7.32 17.5239 7.32 17.8333C7.32 18.1428 7.43379 18.4395 7.63632 18.6583C7.83886 18.8771 8.11357 19 8.4 19H19.92C20.2064 19 20.4811 18.8771 20.6837 18.6583C20.8862 18.4395 21 18.1428 21 17.8333C21 17.5239 20.8862 17.2272 20.6837 17.0084C20.4811 16.7896 20.2064 16.6667 19.92 16.6667Z" fill="black"/>
</svg>
