<svg width="24" height="24" viewBox="0 0 24 24" fill="none" xmlns="http://www.w3.org/2000/svg">
<path d="M3 6.16667C3 5.85725 3.11379 5.5605 3.31632 5.34171C3.51886 5.12292 3.79357 5 4.08 5H19.92C20.2064 5 20.4811 5.12292 20.6837 5.34171C20.8862 5.5605 21 5.85725 21 6.16667C21 6.47609 20.8862 6.77283 20.6837 6.99162C20.4811 7.21042 20.2064 7.33333 19.92 7.33333H4.08C3.79357 7.33333 3.51886 7.21042 3.31632 6.99162C3.11379 6.77283 3 6.47609 3 6.16667ZM6.24 8.88889C5.95357 8.88889 5.67886 9.01181 5.47632 9.2306C5.27379 9.44939 5.16 9.74614 5.16 10.0556C5.16 10.365 5.27379 10.6617 5.47632 10.8805C5.67886 11.0993 5.95357 11.2222 6.24 11.2222H17.76C18.0464 11.2222 18.3211 11.0993 18.5237 10.8805C18.7262 10.6617 18.84 10.365 18.84 10.0556C18.84 9.74614 18.7262 9.44939 18.5237 9.2306C18.3211 9.01181 18.0464 8.88889 17.76 8.88889H6.24ZM19.92 12.7778H4.08C3.79357 12.7778 3.51886 12.9007 3.31632 13.1195C3.11379 13.3383 3 13.635 3 13.9444C3 14.2539 3.11379 14.5506 3.31632 14.7694C3.51886 14.9882 3.79357 15.1111 4.08 15.1111H19.92C20.2064 15.1111 20.4811 14.9882 20.6837 14.7694C20.8862 14.5506 21 14.2539 21 13.9444C21 13.635 20.8862 13.3383 20.6837 13.1195C20.4811 12.9007 20.2064 12.7778 19.92 12.7778ZM17.76 16.6667H6.24C5.95357 16.6667 5.67886 16.7896 5.47632 17.0084C5.27379 17.2272 5.16 17.5239 5.16 17.8333C5.16 18.1428 5.27379 18.4395 5.47632 18.6583C5.67886 18.8771 5.95357 19 6.24 19H17.76C18.0464 19 18.3211 18.8771 18.5237 18.6583C18.7262 18.4395 18.84 18.1428 18.84 17.8333C18.84 17.5239 18.7262 17.2272 18.5237 17.0084C18.3211 16.7896 18.0464 16.6667 17.76 16.6667Z" fill="black"/>
</svg>
