<svg width="24" height="24" viewBox="0 0 24 24" fill="none" xmlns="http://www.w3.org/2000/svg">
<path d="M3 6.16667C3 5.85725 3.11379 5.5605 3.31632 5.34171C3.51886 5.12292 3.79357 5 4.08 5H19.92C20.2064 5 20.4811 5.12292 20.6837 5.34171C20.8862 5.5605 21 5.85725 21 6.16667C21 6.47609 20.8862 6.77283 20.6837 6.99162C20.4811 7.21042 20.2064 7.33333 19.92 7.33333H4.08C3.79357 7.33333 3.51886 7.21042 3.31632 6.99162C3.11379 6.77283 3 6.47609 3 6.16667ZM4.08 11.2222H15.6C15.8864 11.2222 16.1611 11.0993 16.3637 10.8805C16.5662 10.6617 16.68 10.365 16.68 10.0556C16.68 9.74614 16.5662 9.44939 16.3637 9.2306C16.1611 9.01181 15.8864 8.88889 15.6 8.88889H4.08C3.79357 8.88889 3.51886 9.01181 3.31632 9.2306C3.11379 9.44939 3 9.74614 3 10.0556C3 10.365 3.11379 10.6617 3.31632 10.8805C3.51886 11.0993 3.79357 11.2222 4.08 11.2222ZM19.92 12.7778H4.08C3.79357 12.7778 3.51886 12.9007 3.31632 13.1195C3.11379 13.3383 3 13.635 3 13.9444C3 14.2539 3.11379 14.5506 3.31632 14.7694C3.51886 14.9882 3.79357 15.1111 4.08 15.1111H19.92C20.2064 15.1111 20.4811 14.9882 20.6837 14.7694C20.8862 14.5506 21 14.2539 21 13.9444C21 13.635 20.8862 13.3383 20.6837 13.1195C20.4811 12.9007 20.2064 12.7778 19.92 12.7778ZM15.6 16.6667H4.08C3.79357 16.6667 3.51886 16.7896 3.31632 17.0084C3.11379 17.2272 3 17.5239 3 17.8333C3 18.1428 3.11379 18.4395 3.31632 18.6583C3.51886 18.8771 3.79357 19 4.08 19H15.6C15.8864 19 16.1611 18.8771 16.3637 18.6583C16.5662 18.4395 16.68 18.1428 16.68 17.8333C16.68 17.5239 16.5662 17.2272 16.3637 17.0084C16.1611 16.7896 15.8864 16.6667 15.6 16.6667Z" fill="black"/>
</svg>
