<svg width="8" height="14" viewBox="0 0 8 14" fill="none" xmlns="http://www.w3.org/2000/svg">
<path id="Union" d="M6.59518 0.5C6.25493 0.5 5.92913 0.635876 5.68931 0.876911L0.499712 6.09292C0.380841 6.2121 0.286648 6.35352 0.222399 6.50904C0.158078 6.66473 0.125 6.83157 0.125 7C0.125 7.16843 0.158078 7.33527 0.222399 7.49096C0.286648 7.64648 0.381256 7.78832 0.500128 7.90749L5.68931 13.1231C5.92913 13.3641 6.25493 13.5 6.59518 13.5C6.93543 13.5 7.26123 13.3641 7.50105 13.1231C7.74078 12.8821 7.875 12.5559 7.875 12.2162C7.875 11.8765 7.74078 11.5503 7.50105 11.3093L3.21413 6.9994L7.50105 2.69067C7.74078 2.44972 7.875 2.12345 7.875 1.78379C7.875 1.44412 7.74078 1.11786 7.50105 0.876912C7.26123 0.635876 6.93543 0.5 6.59518 0.5Z" fill="white"/>
</svg>
