<svg width="24" height="24" viewBox="0 0 24 24" fill="none" xmlns="http://www.w3.org/2000/svg">
<g id="icon / 24 / crop">
<path id="Vector" d="M22.875 18C22.875 18.2984 22.7565 18.5845 22.5455 18.7955C22.3345 19.0065 22.0484 19.125 21.75 19.125H19.125V21.75C19.125 22.0484 19.0065 22.3345 18.7955 22.5455C18.5845 22.7565 18.2984 22.875 18 22.875C17.7016 22.875 17.4155 22.7565 17.2045 22.5455C16.9935 22.3345 16.875 22.0484 16.875 21.75V19.125H6C5.70163 19.125 5.41548 19.0065 5.2045 18.7955C4.99353 18.5845 4.875 18.2984 4.875 18V7.125H2.25C1.95163 7.125 1.66548 7.00647 1.4545 6.7955C1.24353 6.58452 1.125 6.29837 1.125 6C1.125 5.70163 1.24353 5.41548 1.4545 5.2045C1.66548 4.99353 1.95163 4.875 2.25 4.875H4.875V2.25C4.875 1.95163 4.99353 1.66548 5.2045 1.4545C5.41548 1.24353 5.70163 1.125 6 1.125C6.29837 1.125 6.58452 1.24353 6.7955 1.4545C7.00647 1.66548 7.125 1.95163 7.125 2.25V16.875H21.75C22.0484 16.875 22.3345 16.9935 22.5455 17.2045C22.7565 17.4155 22.875 17.7016 22.875 18ZM9.75 7.125H16.875V14.25C16.875 14.5484 16.9935 14.8345 17.2045 15.0455C17.4155 15.2565 17.7016 15.375 18 15.375C18.2984 15.375 18.5845 15.2565 18.7955 15.0455C19.0065 14.8345 19.125 14.5484 19.125 14.25V6C19.125 5.70163 19.0065 5.41548 18.7955 5.2045C18.5845 4.99353 18.2984 4.875 18 4.875H9.75C9.45163 4.875 9.16548 4.99353 8.9545 5.2045C8.74353 5.41548 8.625 5.70163 8.625 6C8.625 6.29837 8.74353 6.58452 8.9545 6.7955C9.16548 7.00647 9.45163 7.125 9.75 7.125Z" fill="white"/>
</g>
</svg>
