<svg width="28" height="28" viewBox="0 0 28 28" fill="none" xmlns="http://www.w3.org/2000/svg">
<g id="Aperture">
<path id="Vector" d="M21.7782 6.22195C19.7153 4.15905 16.9174 3.00012 14 3.00012C11.0826 3.00012 8.28473 4.15905 6.22183 6.22195C4.15893 8.28485 3 11.0827 3 14.0001C3 16.9175 4.15893 19.7154 6.22183 21.7783C8.28473 23.8412 11.0826 25.0001 14 25.0001C16.9174 25.0001 19.7153 23.8412 21.7782 21.7783C23.8411 19.7154 25 16.9175 25 14.0001C25 11.0827 23.8411 8.28485 21.7782 6.22195ZM20.5819 7.41924C21.0158 7.85498 21.4055 8.33255 21.7454 8.84499L18.1831 13.0482L15.2301 4.77504C17.2575 5.03988 19.1398 5.96985 20.5819 7.41924ZM16.9181 14.529L14.9974 16.7892L12.0793 16.2604L11.0819 13.4713L13.0026 11.211L15.9207 11.7399L16.9181 14.529ZM7.41806 7.41924C9.01608 5.81254 11.1489 4.84926 13.4109 4.71264L15.2629 9.89527L6.62797 8.3225C6.87163 8.00473 7.13554 7.70302 7.41806 7.41924ZM5.39578 17.5476C4.89367 16.3214 4.65786 15.0026 4.704 13.6784C4.75013 12.3542 5.07714 11.0549 5.66337 9.86671L11.0797 10.8556L5.39578 17.5476ZM7.41806 20.581C6.98419 20.1453 6.59448 19.6677 6.25461 19.1553L9.81688 14.952L12.7699 23.221C10.743 22.9573 8.86082 22.0288 7.41806 20.581ZM20.5819 20.581C18.9839 22.1877 16.8511 23.151 14.5891 23.2876L12.7371 18.105L21.372 19.682C21.1282 19.9983 20.8643 20.2986 20.5819 20.581ZM16.9203 17.1446L22.6042 10.4527C23.1063 11.6788 23.3421 12.9977 23.296 14.3219C23.2499 15.646 22.9229 16.9453 22.3366 18.1335L16.9203 17.1446Z" fill="white"/>
</g>
</svg>
