<svg width="22" height="22" viewBox="0 0 22 22" fill="none" xmlns="http://www.w3.org/2000/svg">
<path id="Union" fill-rule="evenodd" clip-rule="evenodd" d="M17.8419 0.0500488C18.3665 0.0500488 18.7919 0.475378 18.7919 1.00005V3.208H20.9998C21.5245 3.208 21.9498 3.63333 21.9498 4.158C21.9498 4.68267 21.5245 5.108 20.9998 5.108H18.7919V7.31595C18.7919 7.84062 18.3665 8.26595 17.8419 8.26595C17.3172 8.26595 16.8919 7.84062 16.8919 7.31595V5.108H14.6839C14.1592 5.108 13.7339 4.68267 13.7339 4.158C13.7339 3.63333 14.1592 3.208 14.6839 3.208H16.8919V1.00005C16.8919 0.475378 17.3172 0.0500488 17.8419 0.0500488ZM6.01275 1.10288L6.05253 1.10288H11C11.5247 1.10288 11.95 1.52821 11.95 2.05288C11.95 2.57755 11.5247 3.00288 11 3.00288H6.05253C5.15254 3.00288 4.53469 3.00362 4.05575 3.04275C3.58791 3.08097 3.33688 3.15104 3.15537 3.24353C2.73991 3.45521 2.40214 3.79299 2.19046 4.20844C2.09797 4.38996 2.0279 4.64098 1.98967 5.10882C1.95054 5.58776 1.94981 6.20561 1.94981 7.1056V15.9479C1.94981 16.8478 1.95054 17.4657 1.98967 17.9446C2.0279 18.4125 2.09797 18.6635 2.19046 18.845L1.344 19.2763L2.19046 18.845C2.40214 19.2605 2.73991 19.5982 3.15537 19.8099C3.15796 19.8113 3.16057 19.8126 3.16319 19.8139C3.26025 19.6402 3.37707 19.5096 3.45298 19.4274C3.60952 19.258 3.82371 19.0634 4.05018 18.8575L4.07783 18.8324L12.9821 10.7376L13.0029 10.7187C13.1736 10.5635 13.3385 10.4135 13.4887 10.2965C13.6544 10.1673 13.855 10.0349 14.1092 9.95233C14.4704 9.83503 14.8574 9.82282 15.2252 9.91712C15.4842 9.98351 15.6927 10.103 15.8662 10.2215C16.0235 10.3288 16.1975 10.4681 16.3777 10.6123L16.3997 10.6298L19.3442 12.9854C19.3661 13.003 19.3878 13.0203 19.4093 13.0375C19.7435 13.3044 20.0254 13.5295 20.2456 13.8101C20.5201 14.1599 20.715 14.5654 20.8166 14.9983C20.8982 15.3455 20.8979 15.7062 20.8976 16.134C20.8975 16.1615 20.8975 16.1892 20.8975 16.2173V16.2513C20.8975 16.4284 20.8975 16.5976 20.897 16.7593C20.8973 16.7695 20.8975 16.7797 20.8975 16.79C20.8975 16.8362 20.8975 16.8817 20.8976 16.9266C20.8979 17.7725 20.8982 18.3808 20.7575 18.9058C20.5914 19.5261 20.2859 20.0869 19.8762 20.5533C19.7328 20.7166 19.5766 20.8684 19.4091 21.007C18.9614 21.3777 18.4331 21.6551 17.8528 21.8106C17.3278 21.9513 16.7194 21.951 15.8735 21.9506C15.8286 21.9506 15.7831 21.9506 15.7369 21.9506H15.2546C15.2359 21.9506 15.2171 21.9506 15.1983 21.9506H15.1642H6.05253H6.01278C5.98965 21.9506 5.96663 21.9506 5.94373 21.9506H5.28334L5.24602 21.9506C4.97366 21.9506 4.71444 21.9506 4.49873 21.9365C4.28498 21.9297 4.08603 21.9195 3.90103 21.9044C3.31569 21.8566 2.78679 21.7546 2.29279 21.5028C1.51983 21.109 0.891388 20.4806 0.497546 19.7076C0.245837 19.2136 0.143809 18.6847 0.0959849 18.0994C0.0497848 17.5339 0.0497939 16.8382 0.049805 15.9876L0.0498054 15.9479V7.1056L0.049805 7.06582C0.0497939 6.2153 0.0497848 5.51957 0.0959849 4.9541C0.143809 4.36876 0.245837 3.83986 0.497545 3.34586C0.891388 2.5729 1.51982 1.94446 2.29279 1.55062C2.78679 1.29891 3.31569 1.19688 3.90103 1.14906C4.46649 1.10286 5.16223 1.10287 6.01275 1.10288ZM18.5355 19.1942C18.6494 19.047 18.7452 18.8849 18.8196 18.711C18.8876 18.5519 18.9397 18.3327 18.968 17.9295C18.997 17.5173 18.9975 16.9882 18.9975 16.2173C18.9975 15.6625 18.9916 15.5376 18.9669 15.4325C18.9285 15.2688 18.8548 15.1155 18.751 14.9832C18.6843 14.8983 18.5905 14.8157 18.1573 14.4691L15.2127 12.1135C15.0024 11.9452 14.8854 11.8524 14.795 11.7907C14.7675 11.7719 14.7493 11.7609 14.7388 11.755C14.7294 11.754 14.7199 11.7543 14.7105 11.7559C14.7005 11.7624 14.683 11.7746 14.6567 11.7951C14.5704 11.8623 14.4595 11.9623 14.2602 12.1435L5.56277 20.0502C5.71623 20.0506 5.87915 20.0506 6.05253 20.0506H15.1642C15.9351 20.0506 16.4643 20.05 16.8764 20.0211C17.2796 19.9928 17.4988 19.9407 17.658 19.8726C17.8298 19.7991 17.9902 19.7047 18.136 19.5925C18.2856 19.4774 18.4199 19.3435 18.5355 19.1942ZM6.78938 6.68715C6.15133 6.68715 5.63408 7.2044 5.63408 7.84245C5.63408 8.48051 6.15133 8.99776 6.78938 8.99776C7.42744 8.99776 7.94468 8.48051 7.94468 7.84245C7.94468 7.2044 7.42744 6.68715 6.78938 6.68715ZM3.73408 7.84245C3.73408 6.15506 5.10199 4.78715 6.78938 4.78715C8.47678 4.78715 9.84468 6.15506 9.84468 7.84245C9.84468 9.52985 8.47678 10.8978 6.78938 10.8978C5.10199 10.8978 3.73408 9.52985 3.73408 7.84245Z" fill="white"/>
</svg>
