<svg width="22" height="22" viewBox="0 0 22 22" fill="none" xmlns="http://www.w3.org/2000/svg">
<g id="Union">
<path d="M18.7057 0C18.4774 0 18.2584 0.0906958 18.097 0.252137C17.9355 0.413577 17.8448 0.632539 17.8448 0.860852V2.43323H16.2723C16.044 2.43323 15.825 2.52393 15.6636 2.68537C15.5021 2.84681 15.4114 3.06577 15.4114 3.29409C15.4114 3.5224 15.5021 3.74136 15.6636 3.9028C15.825 4.06424 16.044 4.15494 16.2723 4.15494H17.8448V5.72732C17.8448 5.95563 17.9355 6.17459 18.097 6.33603C18.2584 6.49748 18.4774 6.58817 18.7057 6.58817C18.934 6.58817 19.153 6.49748 19.3145 6.33603C19.4759 6.17459 19.5666 5.95563 19.5666 5.72732V4.15494H21.1391C21.3674 4.15494 21.5864 4.06424 21.7478 3.9028C21.9093 3.74136 22 3.5224 22 3.29409C22 3.06577 21.9093 2.84681 21.7478 2.68537C21.5864 2.52393 21.3674 2.43323 21.1391 2.43323H19.5666V0.860852C19.5666 0.632539 19.4759 0.413577 19.3145 0.252137C19.153 0.0906958 18.934 0 18.7057 0Z" fill="white"/>
<path fill-rule="evenodd" clip-rule="evenodd" d="M12.6524 1.9548C12.4599 1.83699 12.2287 1.79955 12.0088 1.85054L6.33003 3.27013C6.14379 3.31668 5.97844 3.42415 5.86028 3.57544C5.74212 3.72674 5.67793 3.9132 5.6779 4.10516V15.1739C5.00822 14.7502 4.21936 14.5523 3.42745 14.6108C2.6048 14.6715 1.82604 15.0054 1.2149 15.5594C0.603757 16.1134 0.195285 16.8557 0.0543815 17.6684C-0.0865218 18.4811 0.0482261 19.3176 0.437216 20.045C0.826206 20.7724 1.44713 21.3489 2.20132 21.683C2.95552 22.017 3.79974 22.0895 4.59985 21.8889C5.39996 21.6882 6.11007 21.226 6.61735 20.5756C7.12464 19.9251 7.40001 19.1238 7.3997 18.299V9.64415L14.8597 7.77876C15.0777 7.72026 15.2641 7.57844 15.3786 7.38387C15.4931 7.1893 15.5265 6.95754 15.4718 6.73852C15.417 6.5195 15.2784 6.33076 15.0858 6.21296C14.8932 6.09515 14.6612 6.05791 14.4413 6.1089L7.3997 7.86869V4.77768L12.4263 3.5206C12.6443 3.4621 12.8307 3.32029 12.9452 3.12571C13.0597 2.93114 13.0932 2.69938 13.0384 2.48036C12.9836 2.26134 12.845 2.0726 12.6524 1.9548ZM3.31396 16.3591C3.69766 16.2828 4.09538 16.322 4.45682 16.4717C4.81826 16.6214 5.12719 16.8749 5.34454 17.2002C5.56189 17.5254 5.6779 17.9078 5.6779 18.299C5.6779 18.8236 5.4695 19.3267 5.09854 19.6976C4.72759 20.0686 4.22447 20.2769 3.69985 20.2769C3.30863 20.2769 2.9262 20.1609 2.60091 19.9436C2.27562 19.7263 2.02209 19.4174 1.87238 19.0559C1.72266 18.6945 1.68349 18.2968 1.75982 17.9132C1.83614 17.5295 2.02453 17.177 2.30116 16.9004C2.5778 16.6238 2.93025 16.4354 3.31396 16.3591Z" fill="white"/>
<path fill-rule="evenodd" clip-rule="evenodd" d="M19.5168 8.92186C19.2885 8.92186 19.0695 9.01255 18.9081 9.174C18.7466 9.33544 18.6559 9.5544 18.6559 9.78271V11.9296C17.9863 11.5059 17.1974 11.308 16.4055 11.3665C15.5828 11.4272 14.8041 11.7611 14.1929 12.3151C13.5818 12.8691 13.1733 13.6114 13.0324 14.4241C12.8915 15.2368 13.0263 16.0733 13.4153 16.8007C13.8042 17.528 14.4252 18.1046 15.1794 18.4387C15.9336 18.7727 16.7778 18.8452 17.5779 18.6446C18.378 18.4439 19.0881 17.9817 19.5954 17.3312C20.1027 16.6808 20.378 15.8795 20.3777 15.0547V9.78271C20.3777 9.5544 20.287 9.33544 20.1256 9.174C19.9641 9.01255 19.7452 8.92186 19.5168 8.92186ZM16.292 13.1148C16.6757 13.0385 17.0734 13.0777 17.4349 13.2274C17.7963 13.3771 18.1052 13.6306 18.3226 13.9558C18.5399 14.2811 18.6559 14.6635 18.6559 15.0547C18.6559 15.5793 18.4475 16.0824 18.0766 16.4533C17.7056 16.8242 17.2025 17.0326 16.6779 17.0326C16.2867 17.0326 15.9042 16.9166 15.579 16.6993C15.2537 16.482 15.0001 16.1731 14.8504 15.8116C14.7007 15.4502 14.6615 15.0525 14.7379 14.6688C14.8142 14.2852 15.0026 13.9327 15.2792 13.6561C15.5558 13.3795 15.9083 13.1911 16.292 13.1148Z" fill="white"/>
</g>
</svg>
