<svg width="14" height="20" viewBox="0 0 14 20" fill="none" xmlns="http://www.w3.org/2000/svg">
<path id="Vector" d="M13.3801 0.11291C13.1942 0.0215459 12.9866 -0.0155236 12.7807 0.00592025C12.5749 0.0273641 12.3792 0.10646 12.2159 0.234207L5.88368 5.18515H1.84211C1.35355 5.18515 0.885002 5.38025 0.53954 5.72754C0.194078 6.07484 0 6.54586 0 7.03701V12.9629C0 13.4541 0.194078 13.9251 0.53954 14.2724C0.885002 14.6197 1.35355 14.8148 1.84211 14.8148H5.88368L12.2159 19.7657C12.3792 19.8935 12.5749 19.9726 12.7808 19.9941C12.9866 20.0155 13.1943 19.9785 13.3802 19.8871C13.5661 19.7957 13.7228 19.6537 13.8323 19.4772C13.9419 19.3008 14 19.0969 14 18.8889V1.11106C14 0.903033 13.9419 0.699187 13.8323 0.522724C13.7227 0.346261 13.566 0.204269 13.3801 0.11291ZM2.21053 7.40738H5.15789V12.5926H2.21053V7.40738ZM11.7895 16.6167L7.36842 13.1592V6.84071L11.7895 3.38329V16.6167Z" fill="white"/>
</svg>
