<svg width="24" height="24" viewBox="0 0 24 24" fill="none" xmlns="http://www.w3.org/2000/svg">
<path fill-rule="evenodd" clip-rule="evenodd" d="M14.4581 17.7004L9.03153 5.51098C8.9638 5.35872 8.85628 5.22953 8.72127 5.13892C8.58621 5.04827 8.4293 5 8.26889 5C8.10848 5 7.95157 5.04827 7.81651 5.13892C7.68149 5.22953 7.57398 5.35872 7.50625 5.51098L2.07969 17.7004C2.03282 17.8058 2.00608 17.9198 2.00092 18.0359C1.99576 18.152 2.01229 18.2681 2.0496 18.3776C2.12493 18.5986 2.28053 18.7797 2.48299 18.8804C2.68553 18.9811 2.91783 18.9926 3.12855 18.9124C3.33917 18.8322 3.51028 18.6671 3.60494 18.4544L4.97349 15.3805H11.5643L12.9329 18.4544C12.9797 18.5597 13.0458 18.6545 13.1275 18.7331C13.2093 18.8117 13.305 18.8727 13.4092 18.9124C13.5135 18.9521 13.6242 18.9697 13.7351 18.9642C13.8459 18.9587 13.9546 18.9302 14.0548 18.8804C14.155 18.8305 14.2448 18.7604 14.3192 18.6741C14.3935 18.5878 14.4509 18.487 14.4882 18.3776C14.5255 18.2681 14.542 18.152 14.5369 18.0359C14.5317 17.9198 14.5049 17.8057 14.4581 17.7004ZM10.7738 13.6049H5.76398L8.26889 7.97837L10.7738 13.6049Z" fill="#010101"/>
<path fill-rule="evenodd" clip-rule="evenodd" d="M18.4437 9.30277C17.3319 9.30277 16.4394 9.62298 15.815 10.2782L15.8122 10.2812C15.6604 10.4485 15.5769 10.6713 15.5787 10.9021C15.5805 11.1328 15.6675 11.3542 15.8219 11.5189C15.9763 11.6836 16.1861 11.7785 16.4065 11.7825C16.627 11.7864 16.8397 11.6992 16.9995 11.5401L17.0024 11.537C17.2804 11.2454 17.7539 11.0783 18.4437 11.0783C19.494 11.0783 20.303 11.8232 20.3146 12.6815C19.7447 12.3442 19.1002 12.1673 18.4433 12.1709C16.4967 12.1711 14.8882 13.6808 14.8882 15.5682C14.8882 17.4557 16.4968 18.9654 18.4433 18.9656C19.1206 18.9687 19.7845 18.7799 20.3669 18.4212C20.4131 18.5523 20.4886 18.6714 20.5886 18.7676C20.7538 18.9266 20.9725 19.0101 21.1966 18.999C21.4207 18.9879 21.6309 18.8832 21.7812 18.7087C21.9305 18.5354 22.0086 18.3072 21.9993 18.0741V12.7001C21.9993 10.8125 20.3905 9.30277 18.4437 9.30277ZM20.3147 15.5682C20.3147 16.4343 19.5016 17.1901 18.4437 17.1901C17.3858 17.1901 16.5727 16.4343 16.5727 15.5682C16.5727 14.7022 17.3858 13.9464 18.4437 13.9464C19.5016 13.9464 20.3147 14.7022 20.3147 15.5682Z" fill="#010101"/>
</svg>
