<svg width="28" height="28" viewBox="0 0 28 28" fill="none" xmlns="http://www.w3.org/2000/svg">
<g id="TextAa">
<g id="Union">
<path fill-rule="evenodd" clip-rule="evenodd" d="M16.9497 20.5147L10.4378 6.58397C10.3566 6.40996 10.2275 6.26232 10.0655 6.15876C9.90345 6.05517 9.71516 6 9.52267 6C9.33018 6 9.14188 6.05517 8.97981 6.15876C8.81779 6.26232 8.68877 6.40996 8.6075 6.58397L2.09563 20.5148C2.03939 20.6352 2.00729 20.7654 2.00111 20.8981C1.99492 21.0308 2.01475 21.1635 2.05952 21.2886C2.14992 21.5412 2.33664 21.7483 2.57958 21.8633C2.82263 21.9784 3.1014 21.9916 3.35426 21.8999C3.607 21.8082 3.81234 21.6195 3.92593 21.3764L5.56819 17.8634H13.4771L15.1194 21.3765C15.1757 21.4968 15.255 21.6051 15.3531 21.6949C15.4511 21.7848 15.5659 21.8545 15.6911 21.8999C15.8162 21.9453 15.9491 21.9654 16.0821 21.9591C16.2151 21.9528 16.3455 21.9202 16.4658 21.8633C16.586 21.8063 16.6938 21.7262 16.783 21.6276C16.8722 21.5289 16.941 21.4137 16.9858 21.2886C17.0306 21.1635 17.0504 21.0308 17.0442 20.8981C17.038 20.7654 17.0059 20.6351 16.9497 20.5147ZM12.5286 15.8342H6.51678L9.52267 9.40385L12.5286 15.8342Z" fill="white"/>
<path fill-rule="evenodd" clip-rule="evenodd" d="M21.7325 10.9175C20.3983 10.9175 19.3273 11.2834 18.578 12.0322L18.5747 12.0357C18.3925 12.2268 18.2923 12.4815 18.2944 12.7452C18.2965 13.009 18.401 13.262 18.5862 13.4502C18.7716 13.6384 19.0233 13.7468 19.2878 13.7514C19.5524 13.7559 19.8077 13.6562 19.9994 13.4744L20.0029 13.4708C20.3365 13.1376 20.9047 12.9466 21.7325 12.9466C22.9928 12.9466 23.9637 13.798 23.9775 14.7788C23.2936 14.3934 22.5202 14.1913 21.7319 14.1953C19.3961 14.1955 17.4658 15.9209 17.4658 18.078C17.4658 20.2351 19.3961 21.9605 21.732 21.9607C22.5447 21.9642 23.3415 21.7484 24.0403 21.3385C24.0958 21.4883 24.1863 21.6244 24.3063 21.7344C24.5045 21.9161 24.767 22.0116 25.0359 21.9989C25.3048 21.9862 25.5571 21.8665 25.7374 21.6671C25.9166 21.469 26.0103 21.2083 25.9991 20.9418V14.8001C25.9991 12.6429 24.0686 10.9175 21.7325 10.9175ZM23.9777 18.078C23.9777 19.0678 23.0019 19.9315 21.7325 19.9315C20.463 19.9315 19.4872 19.0678 19.4872 18.078C19.4872 17.0882 20.463 16.2245 21.7325 16.2245C23.0019 16.2245 23.9777 17.0882 23.9777 18.078Z" fill="white"/>
</g>
</g>
</svg>
